<?xml version="1.0" encoding="utf-8"?>
<!-- Generator: Adobe Illustrator 16.0.0, SVG Export Plug-In . SVG Version: 6.00 Build 0)  -->
<!DOCTYPE svg PUBLIC "-//W3C//DTD SVG 1.1//EN" "http://www.w3.org/Graphics/SVG/1.1/DTD/svg11.dtd">
<svg version="1.1" id="Livello_1" xmlns="http://www.w3.org/2000/svg" xmlns:xlink="http://www.w3.org/1999/xlink" x="0px" y="0px"
	 width="300px" height="93.864px" viewBox="0 0 300 93.864" enable-background="new 0 0 300 93.864" xml:space="preserve">
<g>
	<g>
		<path fill="#FFFFFF" d="M278.874,71.264c0.081-0.409,0.524-0.693,0.987-0.624l7.056,1.085c0.463,0.068,0.769,0.473,0.688,0.883
			l0,0c-0.078,0.409-0.521,0.693-0.987,0.622l-7.054-1.081C279.104,72.079,278.794,71.672,278.874,71.264L278.874,71.264z"/>
		<g>
			<path fill="#FFFFFF" d="M277.486,87.456c0.302,0.938,0.521,4.629,0.807,6.276l2.164-11.153c-0.477-0.072-0.816-0.777-0.705-1.344
				c0.135-0.699,0.941-1.152,1.729-1.033c0.791,0.121,1.34,0.786,1.201,1.483c-0.106,0.575-0.519,1.005-1.222,1.06l-2.315,11.119
				c0.877-1.445,2.709-4.756,3.418-5.632c0.752-0.928,3.336-3.659,3.336-3.659l0.517-12.925l-6.047-0.931l-4.499,12.314
				C275.867,83.034,277.135,86.355,277.486,87.456z"/>
		</g>
		<path fill="#FFFFFF" d="M294.182,7.508c0.131-0.656,0.873-1.287,1.616-1.171l0.673,0.104c0.738,0.114,1.201,0.928,1.069,1.582
			l-9.504,62.403c-0.13,0.658-0.882,1.334-1.623,1.222l-6.049-0.931c-0.741-0.114-1.19-0.977-1.06-1.631L294.182,7.508z"/>
	</g>
</g>
<g enable-background="new    ">
	<path fill="#FFFFFF" d="M32.622,2.69c2.223-0.714,4.8-1.206,7.731-1.474c2.931-0.268,5.861-0.089,8.792,0.536
		s5.675,1.831,8.236,3.617c2.56,1.787,4.513,4.363,5.861,7.727c1.347,3.365,1.92,7.637,1.718,12.818
		c-0.202,5.181-1.551,11.522-4.042,19.025c-1.752,5.241-4.026,9.78-6.821,13.622c-2.796,3.841-5.846,7.025-9.146,9.559
		c-3.302,2.529-6.755,4.405-10.358,5.627c-3.605,1.221-7.092,1.86-10.46,1.92c-3.37,0.061-6.536-0.461-9.5-1.563
		c-2.966-1.104-5.475-2.74-7.529-4.913c-2.054-2.175-3.52-4.853-4.396-8.039c-0.875-3.185-0.943-6.862-0.202-11.03
		c0.338-0.356,0.859-0.761,1.566-1.207c0.707-0.445,1.465-0.877,2.274-1.295c0.809-0.417,1.582-0.771,2.324-1.072
		c0.741-0.297,1.314-0.476,1.718-0.536c-0.742,2.68-1.163,5.121-1.264,7.324s0.051,4.199,0.455,5.983
		c0.606-3.931,1.582-8.263,2.931-12.997c1.347-4.734,2.997-9.604,4.952-14.604c1.954-5.002,4.21-9.989,6.771-14.961
		C26.793,11.787,29.59,7.098,32.622,2.69z M53.439,43.957c2.224-7.026,3.351-12.997,3.386-17.909
		c0.033-4.913-0.692-8.843-2.173-11.791c-1.483-2.948-3.587-4.927-6.316-5.94c-2.729-1.012-5.745-1.101-9.045-0.268
		c-2.965,4.586-5.778,9.41-8.438,14.47c-2.662,5.062-5.07,10.154-7.226,15.274c-2.157,5.122-4.042,10.213-5.66,15.274
		c-1.617,5.063-2.864,9.887-3.739,14.471c2.492,2.084,5.592,3.155,9.298,3.217c3.704,0.06,7.443-0.895,11.217-2.857
		c3.772-1.966,7.36-4.941,10.763-8.934C48.908,54.974,51.553,49.972,53.439,43.957z"/>
	<path fill="#FFFFFF" d="M94.772,43.064c0.471-0.833,0.993-1.429,1.566-1.787c0.572-0.357,1.061-0.505,1.465-0.447
		c0.404,0.06,0.673,0.343,0.809,0.849c0.134,0.507,0,1.237-0.404,2.188c-2.157,4.645-4.649,8.5-7.479,11.567
		s-5.659,5.391-8.489,6.967c-2.83,1.579-5.525,2.398-8.085,2.457c-2.561,0.059-4.684-0.595-6.367-1.966
		c-1.683-1.369-2.744-3.438-3.183-6.207c-0.438-2.771,0.017-6.237,1.364-10.407c0.808-2.501,1.819-4.629,3.032-6.386
		c1.212-1.756,2.476-3.156,3.79-4.198s2.661-1.787,4.042-2.233c1.38-0.446,2.678-0.639,3.891-0.581
		c2.021,0.12,3.588,0.804,4.699,2.055c1.112,1.25,1.819,2.769,2.123,4.555c0.303,1.787,0.185,3.738-0.354,5.851
		c-0.54,2.115-1.465,4.08-2.779,5.896c-1.314,1.817-2.966,3.365-4.952,4.645c-1.988,1.281-4.33,2.012-7.023,2.188
		c0.74,1.251,1.953,1.862,3.638,1.831c1.683-0.029,3.587-0.67,5.709-1.92c2.123-1.251,4.328-3.126,6.62-5.627
		C90.695,49.852,92.817,46.757,94.772,43.064z M80.927,39.848c-0.876-0.297-1.836,0.016-2.88,0.938
		c-1.045,0.924-2.021,2.13-2.931,3.618c-0.909,1.489-1.685,3.082-2.324,4.778c-0.641,1.697-0.995,3.172-1.061,4.422
		c1.213,0.061,2.357-0.225,3.436-0.85c1.077-0.625,2.054-1.397,2.931-2.321c0.875-0.923,1.633-1.966,2.274-3.126
		c0.639-1.161,1.094-2.262,1.364-3.305c0.269-1.041,0.354-1.934,0.252-2.68C81.887,40.578,81.534,40.087,80.927,39.848z"/>
	<path fill="#FFFFFF" d="M118.923,42.975c0.606-0.952,1.196-1.577,1.769-1.876c0.572-0.297,1.062-0.371,1.466-0.223
		c0.404,0.149,0.639,0.506,0.707,1.072c0.066,0.566-0.101,1.206-0.505,1.92c-0.742,1.311-1.55,2.71-2.425,4.198
		c-0.876,1.489-1.786,2.979-2.729,4.466c-1.551,2.442-3.319,4.66-5.306,6.655c-1.988,1.995-4.161,3.528-6.518,4.601
		c-1.483,0.655-3.067,1.014-4.75,1.071c-1.685,0.06-3.218-0.134-4.598-0.581c-1.382-0.445-2.526-1.13-3.436-2.054
		c-0.91-0.923-1.296-2.069-1.162-3.438c0.068-0.772,0.303-1.533,0.708-2.277c0.404-0.743,0.96-1.34,1.667-1.786
		s1.516-0.729,2.425-0.851c0.91-0.117,1.87,0.031,2.88,0.447c0.942,0.357,1.599,0.969,1.97,1.831
		c0.37,0.863,0.471,1.697,0.303,2.501c-0.169,0.805-0.641,1.46-1.415,1.965c-0.775,0.508-1.803,0.641-3.083,0.402
		c1.011,0.477,2.037,0.58,3.083,0.313c1.043-0.269,1.986-0.76,2.83-1.474c0.842-0.715,1.465-1.638,1.87-2.771
		c0.404-1.129,0.438-2.353,0.101-3.662c-0.338-1.309-1.112-2.635-2.324-3.975c-1.213-1.341-3.032-2.605-5.458-3.797
		c-0.27,0.477-0.522,0.953-0.758,1.429c-0.237,0.478-0.522,0.954-0.859,1.428c-0.136,0.063-0.338,0.046-0.606-0.045
		c-0.27-0.09-0.556-0.223-0.859-0.4c-0.303-0.178-0.556-0.355-0.758-0.536c-0.202-0.179-0.303-0.357-0.303-0.536
		c0.338-0.476,0.624-0.923,0.859-1.34c0.237-0.416,0.455-0.804,0.657-1.161c-0.066,0-0.101-0.014-0.101-0.045
		c0-0.029-0.033-0.044-0.101-0.044c-0.741-0.237-0.842-0.773-0.303-1.608c0.943-2.084,1.835-4.004,2.678-5.761
		c0.842-1.756,1.532-3.14,2.072-4.154c0.47,0.06,1.026,0.209,1.667,0.447c0.639,0.239,1.263,0.567,1.87,0.982
		c0.606,0.417,1.162,0.924,1.667,1.519c0.505,0.596,0.859,1.281,1.061,2.055c-0.338,0.656-0.641,1.25-0.91,1.786
		c-0.27,0.536-0.573,1.132-0.91,1.787c3.234,1.786,5.541,3.737,6.923,5.851c1.38,2.113,2.138,4.186,2.274,6.208
		c0.672-1.015,1.364-2.056,2.071-3.127c0.708-1.071,1.364-2.083,1.971-3.037c0.606-0.952,1.127-1.815,1.566-2.59
		C118.3,43.988,118.653,43.392,118.923,42.975z"/>
	<path fill="#FFFFFF" d="M133.981,42.885c0.606-0.952,1.178-1.577,1.718-1.876c0.538-0.297,0.976-0.327,1.313-0.089
		c0.336,0.239,0.521,0.656,0.556,1.25c0.033,0.596-0.152,1.25-0.556,1.965c-1.146,2.144-2.493,4.466-4.042,6.967
		c-1.55,2.501-3.133,4.811-4.75,6.923c-1.617,2.114-3.234,3.841-4.851,5.181c-1.617,1.34-3.1,1.86-4.446,1.563
		c-2.021-0.356-3.401-1.265-4.144-2.724c-0.741-1.459-1.077-3.201-1.011-5.228c0.068-2.022,0.455-4.212,1.162-6.563
		c0.708-2.354,1.516-4.646,2.426-6.878c0.909-2.233,1.834-4.272,2.779-6.119c0.943-1.845,1.684-3.274,2.224-4.288
		c0.942,0.12,2.104,0.581,3.486,1.385c1.38,0.804,2.307,1.98,2.779,3.528c-0.404,0.834-0.944,1.965-1.617,3.394
		c-0.674,1.429-1.381,2.963-2.122,4.6c-0.742,1.639-1.465,3.291-2.173,4.958c-0.708,1.666-1.298,3.201-1.769,4.6
		c-0.472,1.4-0.742,2.546-0.809,3.439c-0.068,0.893,0.134,1.397,0.606,1.518c0.471,0.119,1.094-0.163,1.87-0.848
		c0.774-0.687,1.6-1.578,2.476-2.682c0.875-1.104,1.769-2.354,2.678-3.752c0.909-1.396,1.768-2.77,2.577-4.107
		c0.809-1.338,1.532-2.562,2.173-3.664C133.155,44.24,133.643,43.421,133.981,42.885z M129.534,36.365
		c-0.54-1.25-1.381-2.322-2.526-3.216c-1.146-0.893-2.46-1.369-3.941-1.429c0.202-0.476,0.455-1.012,0.758-1.607
		c0.303-0.595,0.589-1.162,0.859-1.697c0.269-0.536,0.505-1.012,0.708-1.429c0.202-0.416,0.369-0.715,0.505-0.893
		c0.47,0.12,1.01,0.313,1.617,0.581c0.606,0.268,1.213,0.641,1.819,1.116c0.606,0.478,1.162,1.027,1.667,1.653
		c0.505,0.625,0.859,1.326,1.061,2.099c-0.27,0.478-0.624,1.147-1.061,2.01C130.561,34.415,130.073,35.353,129.534,36.365z"/>
	<path fill="#FFFFFF" d="M165.713,43.064c0.471-0.952,1.01-1.608,1.617-1.965c0.605-0.357,1.111-0.476,1.516-0.357
		c0.404,0.12,0.656,0.462,0.758,1.027c0.103,0.567-0.086,1.326-0.557,2.278c-1.684,3.633-3.385,6.7-5.104,9.2
		c-1.717,2.502-3.453,4.603-5.205,6.299c-1.752,1.695-3.521,3.08-5.305,4.152c-1.785,1.071-3.521,1.965-5.207,2.68
		c-2.627,4.646-5.29,7.92-7.983,9.826c-2.695,1.904-5.154,2.902-7.377,2.991c-2.223,0.089-4.007-0.507-5.356-1.786
		c-1.347-1.281-1.954-2.813-1.819-4.601c0.136-1.906,0.793-3.364,1.971-4.377c1.18-1.013,2.595-1.772,4.245-2.277
		c1.65-0.507,3.385-0.849,5.205-1.026c1.819-0.18,3.502-0.356,5.053-0.537c0.134-0.235,0.253-0.475,0.354-0.713
		c0.101-0.236,0.218-0.506,0.354-0.806c-1.819,1.251-3.688,1.847-5.609,1.787c-1.92-0.06-3.537-0.789-4.851-2.188
		c-1.314-1.396-2.138-3.453-2.476-6.162c-0.336-2.709,0.136-6.088,1.415-10.138c1.415-4.288,3.166-7.472,5.255-9.558
		c2.087-2.083,4.159-3.35,6.215-3.796c2.054-0.447,3.891-0.179,5.507,0.804c1.617,0.982,2.661,2.398,3.133,4.243
		c0.539-1.488,0.979-2.738,1.313-3.751c0.336-1.012,0.572-1.577,0.707-1.697c0.942,0.12,2.123,0.625,3.537,1.518
		c1.414,0.894,2.289,2.055,2.627,3.484c-0.065,0.239-0.287,0.864-0.654,1.875c-0.371,1.013-0.811,2.233-1.313,3.663
		c-0.507,1.429-1.063,2.963-1.668,4.602c-0.605,1.639-1.195,3.201-1.77,4.688c-0.573,1.489-1.078,2.801-1.518,3.932
		c-0.438,1.133-0.725,1.906-0.857,2.321c-0.202,0.478-0.391,0.925-0.557,1.341c-0.17,0.418-0.354,0.834-0.557,1.25
		c2.896-1.785,5.473-4.123,7.73-7.013C160.743,51.385,163.15,47.65,165.713,43.064z M130.342,72.719c0,0.595,0.27,1.115,0.809,1.563
		c0.54,0.447,1.263,0.596,2.173,0.447c0.909-0.148,1.953-0.701,3.133-1.652c1.178-0.953,2.441-2.562,3.79-4.824
		c-1.281,0.181-2.526,0.357-3.739,0.537c-1.213,0.178-2.274,0.416-3.183,0.715c-0.91,0.297-1.633,0.699-2.173,1.205
		C130.612,71.213,130.342,71.883,130.342,72.719z M138.527,47.797c-1.212,3.515-1.702,6.238-1.465,8.174
		c0.235,1.936,0.859,3.08,1.87,3.438c1.011,0.357,2.239-0.059,3.689-1.25c1.448-1.189,2.779-3.127,3.992-5.806
		c0.202-0.595,0.404-1.222,0.606-1.876c0.202-0.654,0.438-1.34,0.708-2.055c0.74-2.381,0.875-4.317,0.404-5.806
		c-0.472-1.488-1.263-2.352-2.375-2.59c-1.112-0.237-2.375,0.254-3.79,1.474C140.751,42.722,139.538,44.821,138.527,47.797z"/>
	<path fill="#FFFFFF" d="M196.635,42.885c0.607-0.952,1.18-1.577,1.719-1.876c0.539-0.297,0.978-0.342,1.313-0.134
		c0.337,0.209,0.521,0.611,0.556,1.206c0.033,0.596-0.149,1.281-0.556,2.055c-1.146,2.146-2.476,4.466-3.991,6.967
		c-1.515,2.501-3.082,4.81-4.699,6.923c-1.617,2.114-3.232,3.826-4.852,5.137c-1.617,1.312-3.1,1.844-4.445,1.606
		c-1.955-0.356-3.303-1.235-4.043-2.636c-0.742-1.397-1.096-3.082-1.062-5.047c0.032-1.965,0.37-4.063,1.011-6.297
		c0.639-2.232,1.364-4.363,2.172-6.388c-1.01,0.417-2.156,0.998-3.436,1.742c-1.28,0.745-2.594,1.729-3.941,2.946
		c-1.348,1.224-2.645,2.666-3.891,4.332c-1.247,1.668-2.309,3.662-3.184,5.984c-0.201,0.775-0.404,1.52-0.605,2.233
		c-0.203,0.715-0.37,1.399-0.506,2.056c-0.336,0.477-0.707,0.803-1.111,0.98c-0.404,0.179-0.824,0.238-1.264,0.18
		c-0.438-0.059-0.824-0.163-1.162-0.313c-0.336-0.148-0.571-0.283-0.707-0.402c-0.336-1.607-0.369-3.559-0.102-5.852
		c0.271-2.291,0.793-4.777,1.564-7.457c0.773-2.682,1.719-5.523,2.83-8.533c1.109-3.006,2.34-6.029,3.688-9.066
		c0.403-0.237,0.941-0.297,1.616-0.179c0.673,0.12,1.347,0.373,2.021,0.759c0.676,0.388,1.279,0.879,1.82,1.474
		c0.537,0.596,0.875,1.221,1.01,1.875l-3.029,6.431c1.277-1.488,2.592-2.753,3.939-3.796c1.346-1.042,2.609-1.89,3.789-2.546
		c1.178-0.654,2.207-1.146,3.082-1.474c0.875-0.327,1.481-0.491,1.819-0.491h0.101c0.943,0.12,2.072,0.566,3.387,1.34
		c1.313,0.774,2.205,1.936,2.68,3.483c-0.203,0.656-0.574,1.594-1.109,2.813c-0.541,1.221-1.146,2.561-1.82,4.02
		c-0.674,1.461-1.33,2.964-1.971,4.513c-0.643,1.549-1.181,2.979-1.617,4.287c-0.438,1.311-0.707,2.396-0.81,3.26
		s0.083,1.326,0.558,1.385c0.471,0.119,1.094-0.163,1.869-0.848c0.772-0.687,1.582-1.578,2.426-2.682
		c0.842-1.104,1.719-2.354,2.627-3.752c0.91-1.396,1.785-2.77,2.629-4.107c0.842-1.34,1.582-2.562,2.223-3.664
		C195.811,44.24,196.297,43.421,196.635,42.885z"/>
</g>
<g>
	<path fill="#FFFFFF" d="M241.518,44.664c-0.881-0.121-1.871,0.317-2.971,1.313c-1.102,0.997-2.064,2.688-2.889,5.068
		c-1.047,2.918-1.445,5.168-1.197,6.748s0.813,2.492,1.691,2.733c0.881,0.244,1.938-0.17,3.178-1.237
		c1.238-1.069,2.324-2.82,3.261-5.254c0.109-0.533,0.247-1.068,0.413-1.604c0.164-0.534,0.33-1.068,0.494-1.604
		c0.496-1.8,0.508-3.248,0.041-4.34C243.072,45.394,242.396,44.786,241.518,44.664z"/>
	<path fill="#FFFFFF" d="M217.997,52.286c1.483-4.23,2.817-8.633,4.002-13.205c1.183-4.571,2.174-9.033,2.972-13.386
		c0.564-3.081,0.978-5.861,1.252-8.37c-10.141,6.464-16.791,17.265-16.791,29.505c0,5.734,1.467,11.149,4.062,15.956
		C215.047,59.909,216.549,56.413,217.997,52.286z"/>
	<path fill="#FFFFFF" d="M286.662,48.055c-1.102,2.092-2.463,3.695-4.085,4.814c-1.624,1.117-3.315,1.822-5.076,2.113
		c-0.55,1.459-1.252,2.848-2.104,4.158c-0.854,1.313-1.855,2.434-3.012,3.354c-1.156,0.926-2.436,1.605-3.838,2.043
		c-1.402,0.438-2.876,0.512-4.416,0.219c-1.871-0.34-3.439-1.116-4.704-2.334l-0.247,1.531c-0.166,0.392-0.414,0.656-0.744,0.803
		c-0.33,0.147-0.674,0.221-1.031,0.221c-0.355,0-0.688-0.049-0.988-0.146c-0.303-0.099-0.508-0.193-0.619-0.293
		c-0.495-1.41-0.688-3.197-0.578-5.361c0.039-0.766,0.114-1.565,0.205-2.383c-0.583,0.852-1.174,1.674-1.773,2.457
		c-1.319,1.728-2.643,3.138-3.961,4.23c-1.321,1.094-2.533,1.543-3.633,1.35c-1.267-0.242-2.201-0.729-2.807-1.459
		c-0.605-0.729-1.02-1.651-1.238-2.771c-1.431,2.092-3.095,3.44-4.992,4.049c-1.897,0.606-3.59,0.462-5.076-0.438
		c-1.483-0.898-2.518-2.541-3.094-4.924c-0.578-2.383-0.234-5.521,1.03-9.412c1.155-3.646,2.642-6.333,4.457-8.06
		c1.813-1.726,3.59-2.71,5.322-2.954c1.733-0.243,3.245,0.109,4.54,1.058c1.292,0.948,2.021,2.274,2.187,3.976
		c0.386-0.777,0.729-1.434,1.032-1.97c0.303-0.534,0.508-0.923,0.618-1.167c0.771,0.098,1.69,0.463,2.766,1.094
		c1.072,0.632,1.802,1.581,2.188,2.845c-0.165,0.536-0.469,1.302-0.907,2.298c-0.44,0.997-0.949,2.092-1.526,3.282
		c-0.578,1.192-1.144,2.42-1.69,3.686c-0.552,1.266-1.021,2.433-1.403,3.5c-0.386,1.07-0.619,1.959-0.701,2.664
		s0.096,1.082,0.536,1.129c0.386,0.101,0.896-0.133,1.527-0.69c0.631-0.56,1.306-1.301,2.021-2.228
		c0.717-0.922,1.444-1.942,2.188-3.063c0.741-1.117,1.457-2.225,2.146-3.318c0.594-0.941,1.125-1.811,1.614-2.627
		c0.413-1.717,0.89-3.488,1.438-5.327c0.854-2.845,1.787-5.665,2.808-8.462c1.019-2.796,2.063-5.482,3.136-8.061
		c1.073-2.577,2.076-4.912,3.014-7.003c0.385,0,0.854,0.122,1.402,0.365c0.551,0.244,1.102,0.56,1.649,0.948
		c0.55,0.39,1.071,0.852,1.567,1.386c0.496,0.536,0.854,1.119,1.072,1.75c-1.045,2.042-2.117,4.292-3.219,6.748
		c-1.102,2.457-2.174,4.997-3.219,7.623c1.484-0.438,3.106-0.511,4.869-0.219c1.541,0.292,2.818,0.839,3.838,1.641
		c1.018,0.803,1.803,1.776,2.353,2.918c0.55,1.143,0.88,2.407,0.991,3.793c0.109,1.386,0.054,2.81-0.166,4.269
		c1.1-0.341,2.158-0.912,3.178-1.715c1.018-0.801,1.939-1.883,2.766-3.245c0.33-0.631,0.729-1.058,1.195-1.276
		c0.469-0.219,0.854-0.267,1.156-0.146c0.182,0.073,0.313,0.216,0.404,0.412c-0.629-19.283-17.745-34.737-38.781-34.736
		c-5.064,0-9.898,0.905-14.334,2.534c-0.066,1.84-0.279,3.993-0.646,6.477c-0.386,2.602-0.908,5.423-1.567,8.462
		c-0.66,3.04-1.443,6.2-2.353,9.483c-0.91,3.283-1.938,6.518-3.097,9.702c-1.153,3.187-2.407,6.237-3.754,9.155
		c-1.349,2.919-2.793,5.521-4.333,7.806c2.146,0.683,4.443,1.351,6.893,2.009c2.447,0.654,4.869,1.178,7.262,1.566
		c2.396,0.391,4.705,0.568,6.936,0.547c2.229-0.023,4.25-0.4,6.064-1.131c-0.166,0.975-0.618,1.943-1.361,2.918
		c-0.742,0.975-1.73,1.787-2.973,2.441c-1.236,0.658-2.711,1.097-4.414,1.313c-1.707,0.22-3.551,0.062-5.529-0.476
		c-1.045-0.29-2.201-0.668-3.466-1.129c-1.269-0.463-2.56-0.961-3.882-1.496c-1.318-0.535-2.668-1.084-4.043-1.641
		c-0.739-0.303-1.451-0.591-2.176-0.885c7.096,8.516,18.237,14.008,30.773,14.008c21.345,0,38.659-15.906,38.807-35.581
		C286.966,47.373,286.84,47.696,286.662,48.055z"/>
	<path fill="#FFFFFF" d="M264.955,46.561c-0.771,0.852-1.417,1.822-1.939,2.918c-0.521,1.094-0.896,2.25-1.113,3.465
		c-0.221,1.217-0.274,2.359-0.166,3.43c0.111,1.069,0.414,1.994,0.908,2.771c0.496,0.775,1.211,1.288,2.146,1.529
		c0.77,0.195,1.514,0.158,2.229-0.107s1.391-0.691,2.021-1.275c0.633-0.584,1.197-1.287,1.691-2.115
		c0.496-0.826,0.908-1.727,1.238-2.699c-1.814-0.68-3.205-1.848-4.169-3.501c-0.964-1.651-1.06-3.72-0.288-6.2
		C266.577,45.115,265.727,45.711,264.955,46.561z"/>
	<path fill="#FFFFFF" d="M272.879,48.31c-0.109-0.898-0.357-1.665-0.742-2.297c-0.494,1.167-0.646,2.177-0.453,3.026
		c0.191,0.852,0.59,1.545,1.195,2.08C272.988,50.147,272.988,49.211,272.879,48.31z"/>
</g>
</svg>
